<?xml version="1.0" encoding="UTF-8"?>
<svg width="969" height="973" fill="none" viewBox="0 0 969 973" xmlns="http://www.w3.org/2000/svg">
 <path d="m78.986 681.16c7.2668 0 16.993-0.776 23.498 2.773 5.511 3.005 12.535 3.474 18.39 5.765 5.505 2.154 11.096 2.787 16.712 4.451 2.68 0.794 6.121 0.886 8.903 1.314 3.672 0.565 7.13 1.689 10.8 2.262 9.536 1.49 18.99 3.894 28.607 4.963 10.48 1.164 20.948 2.127 31.38 3.575 4.186 0.582 8.199 1.899 12.406 2.336 3.106 0.322 5.88 1.034 8.903 1.715 2.602 0.585 5.279 0.197 7.881 0.766 5.768 1.261 11.496 0.949 17.405 0.949 2.254 0 9.771 1.331 10.874-1.059 3.464-7.505 7.265-17.972 4.889-26.527-1.183-4.26-0.593-8.994-2.664-13.135-2.984-5.97-10.188-10.198-16.054-12.479-5.442-2.116-11.116-3.432-16.748-4.926-5.773-1.531-11.073-3.382-17.077-3.649-6.138-0.273-12.192-1.647-18.317-1.897-6.964-0.284-13.844-0.306-20.762-1.35-6.38-0.963-13.267-1.694-19.703-1.971-6.265-0.269-12.855-2.158-19.047-3.284-13.312-2.42-26.82-4.866-40.064-7.735-5.751-1.246-15.562-1.322-18.755-7.371-3.063-5.803-2.919-11.845-2.919-18.39 0-6.313 1.2758-11.196 2.4812-17.222 1.1359-5.68 4.3288-11.013 5.2542-16.566 0.7317-4.39 2.5806-8.467 3.284-12.844 0.456-2.837 0.1513-5.893 0.9487-8.684 0.1811-0.634 0.2558-4.746 0.6568-4.962 1.618-0.872 9.086 2.306 10.691 3.138 8.215 4.259 11.649 12.051 16.091 19.667 1.641 2.813 2.514 5.909 3.686 8.903 1.683 4.303 6.421 7.461 10.107 9.779 8.49 5.341 19.07 5.238 28.606 7.261 11.121 2.359 22.464 4.109 33.643 6.276 5.287 1.025 10.628 2.459 15.762 4.087 5.073 1.608 10.338 2.336 15.398 3.94 11.691 3.707 24.255 5.084 36.343 7.079 3.866 0.638 9.3 2.8 12.77 0.146 5.702-4.36 7.664-11.429 10.144-17.806 2.504-6.44-3.207-15.601-7.589-19.74-10.965-10.356-24.464-14.742-38.678-18.427-12.703-3.293-26.986-2.726-40.064-3.32-11.044-0.502-22.163-3.636-32.182-8.21-9.233-4.215-18.117-8.826-26.6-14.413-7.866-5.18-15.877-11.525-24.63-15.106-2.753-1.126-15.391-6.223-15.726-8.903-0.662-5.294-0.017-10.626 2.737-15.216 4.328-7.213 10.459-10.597 18.754-11.53 10.357-1.165 18.486-2.16 28.534 1.314 5.436 1.879 10.71 4.346 15.763 7.078 5.567 3.011 11.576 5.311 16.931 8.685 10.454 6.587 20.549 11.502 32.182 15.69 5.702 2.052 10.586 5.047 16.748 5.801 6.562 0.804 12.385 3.51 18.719 5.291 10.83 3.046 21.569 6.065 32.802 7.188 3.619 0.362 9.896 0.742 12.114-2.955 3.535-5.892 2.367-16.796-1.715-21.966-7.244-9.177-16.196-11.71-27.293-14.596-6.607-1.718-12.963-4.26-19.703-5.473-5.703-1.026-11.307-1.42-16.712-3.722-8.448-3.596-17.19-5.782-25.906-8.538-8.139-2.573-16.126-5.536-24.374-7.735-15.945-4.252-31.494-9.816-47.362-14.304-5.171-1.462-10.498-3.041-15.544-4.889-1.924-0.705-4.653-0.832-5.4-2.992-1.266-3.657 4.434-11.99 6.276-15.106 3.941-6.669 10.274-11.017 16.565-15.106 2.341-1.522 6.583-0.832 9.268-0.803 6.424 0.068 12.374 1.592 18.536 3.284 5.795 1.591 11.752 2.28 17.588 3.685 7.819 1.883 15.184 5.65 22.841 8.101 16.63 5.321 32.941 12.035 49.332 18.061 11.979 4.404 25.656 7.921 38.422 8.867 1.368 0.101 5.47 0.733 6.568-0.365 1.88-1.88 2.677-5.57 3.612-7.991 2.862-7.407-3.632-18.113-8.538-23.133-8.632-8.833-21.591-10.417-33.204-12.479-16.61-2.95-31.746-11.317-47.727-16.42-10.62-3.391-20.908-7.793-31.525-11.238-6.302-2.045-12.794-4.177-18.974-6.532-3.266-1.244-7.361-1.777-10.363-3.612-1.975-1.207-1.508-4.592-1.35-6.568 0.286-3.568 3.99-6.561 6.203-9.158 2.858-3.355 5.742-6.467 9.524-8.831 7.119-4.449 15.33-10.545 24.009-10.545 10.813 0 20.697 3.33 30.869 6.641 27.501 8.954 54.131 21.06 82.682 26.527 7.465 1.43 17.993 1.833 21.674-6.531 1.751-3.981 0.855-7.749-1.277-11.458-1.374-2.388-2.731-6.014-5.072-7.662-1.823-1.283-3.425-1.743-5.619-2.116-5.354-0.912-11.067-1.156-16.493-1.752-12.382-1.359-26.77-3.128-38.313-8.1-8.921-3.843-15.714-9.578-23.644-14.741-3.792-2.47-7.355-5.578-4.962-10.363 4.384-8.768 13.426-15.667 21.017-21.528 8.996-6.946 18.045-13.798 26.271-21.674 3.997-3.826 8.774-6.476 13.866-8.173 4.499-1.5 5.348 11.213 6.02 13.902 1.11 4.44-0.137 9.306 0.365 13.829 0.655 5.89 5.579 11.065 8.174 16.054 7.705 14.819 19.426 28.683 24.593 44.698 2.808 8.705 6.403 17.443 9.888 25.907 3.316 8.054 5.87 16.468 9.523 24.338 2.512 5.41 6.661 9.954 10.108 14.741 3.745 5.202 7.444 10.406 11.384 15.471 3.966 5.099 10.057 9.053 15.106 13.135 6.8 5.498 13.912 10.492 20.652 16.055 6.233 5.145 12.844 10.242 19.631 14.668 3.967 2.588 7.629 5.657 11.238 8.685 4.636 3.888 10.264 6.455 14.96 10.18 6.503 5.157 13.874 9.246 20.434 14.449 4.371 3.467 9.792 6.185 14.668 8.867 5.129 2.821 9.353 6.64 13.938 10.216 4.919 3.837 10.251 6.681 15.325 10.181 4.199 2.895 8.154 6.224 12.808 8.428 9.102 4.312 17.65 9.95 26.964 13.866 12.083 5.08 23.423 11.882 35.54 16.93 9.089 3.788 18.833 7.078 27.001 12.771 8.845 6.165 19.69 11.313 27.366 18.828 5.798 5.676 13.628 10.163 18.828 16.347 5.39 6.409 10.529 12.903 16.42 18.901 5.314 5.41 10.047 11.542 14.887 17.368 2.209 2.659 3.23 5.733 4.962 8.684 3.423 5.832 5.815 12.875 8.028 19.266 1.712 4.948 2.466 9.453 1.934 14.778-0.278 2.772-3.79 5.704-5.948 7.188-4.329 2.976-9.958 4.934-15.033 6.203-4.561 1.14-9.177 2.215-13.756 3.284-2.683 0.626-5.521 1.94-8.21 2.298-7.043 0.94-8.252-8.454-9.268-13.099-1.762-8.055-0.949-16.72-0.949-24.958 0-7.907-1.276-13.956-5.619-20.725-2.273-3.544-5.234-7.677-8.319-10.509-2.97-2.726-5.739-6.227-9.049-8.538-5.577-3.893-9.781-6.203-16.785-6.203h-22.002-25.213-14.486c-2.396 0-9.527-0.447-7.188 0.073 5.721 1.272 11.421 2.917 17.04 4.561 8.064 2.361 16.983 5.345 25.286 6.532 5.599 0.799 10.508 3.706 15.763 5.582 6.433 2.298-10.721-8.48-16.31-12.406-8.932-6.273-17.948-12.772-27.33-18.353-10.519-6.259-21.731-11.491-32.402-17.515-6.405-3.616-12.834-7.278-19.484-10.508-2.227-1.082-4.49-1.111-6.714-1.97-5.781-2.234-11.417-4.699-17.149-7.079-8.59-3.567-15.627-9.652-22.55-15.69-8.367-7.298-16.222-15.015-24.228-22.696-6.274-6.018-11.655-12.931-17.879-19.046-7.738-7.604-16.464-14.209-24.739-21.2-14.619-12.35-28.636-25.712-42.691-38.714-4.201-3.885-8.077-9.171-13.465-11.457-4.668-1.981-6.226 1.649-8.611 5.181-7.627 11.299-4.542 28.597-0.62 40.721 1.426 4.407 3.794 9.421 4.196 14.048 0.369 4.242-0.578 8.432-0.62 12.661-0.173 17.277-4.455 34.052-5.765 51.229-0.587 7.697 0.108 14.881-2.117 22.404-1.593 5.39-3.322 10.725-4.597 16.201-0.934 4.011-2.241 9.642-0.365 13.501 1.705 3.508 5.495 5.591 8.903 7.078 5.848 2.552 17.201 2.883 22.696-1.021 3.337-2.372 4.789-5.83 4.889-9.925 0.224-9.186 0.611-18.764-0.657-27.877-1.976-14.204-0.131-28.857 0-43.129 0.051-5.494 0.101-11.515 5.619-14.158 4.923-2.357 8.621-0.209 12.115 3.284 12.258 12.259 16.174 32.192 17.404 48.931 1.1 14.96 1.107 29.472 8.247 43.275 0.735 1.421 5.237 9.683 7.808 7.626 7.151-5.721 12.273-14.911 13.72-23.863 1.744-10.791 0.014-21.956-0.84-32.767-0.389-4.932 7.15 4.225 8.137 5.474 10.429 13.189 10.78 31.986 25.104 41.706 14.572 9.887 30.396 13.268 47.69 13.792 12.275 0.372 27.069-0.017 37.51 7.553 2.823 2.047 9.739 5.949 11.165 9.159 1.183 2.661-5.779 3.356-6.932 3.612-22.455 4.99-46.578 0.921-69.401 2.116-13.826 0.724-28.444 3.511-41.815 7.225-7.23 2.008 4.916 17.646 7.224 19.922 8.747 8.627 9.03 20.642 19.587 26.307 5.909 3.171 21.845-0.652 28 2 2.484 1.07 14.151 0.126 14.151 3.511 0 4.245-0.849 6.642-4.086 9.706-7.904 7.482-18.014 12.686-27.075 18.682-8.885 5.88-6.559 16.295-0.729 23.79 4.333 5.572 12.676 12.786 12.843 20.506 0.098 4.508-1.814 7.679-2.773 11.896-0.071 0.314-0.92 2.28 0 1.605 4.268-3.129 8.554-6.315 12.041-10.326 5.867-6.746 10.695-14.395 12.771-23.17 2.079-8.786 2.198-17.886 2.591-26.855 0.501-11.418 0.896-22.405 0.036-33.825-0.566-7.526 0.404-15.308-0.693-22.768-0.399-2.715-0.985-5.007-0.985-7.772 0-7.131-0.133-11.49 6.094-16.019 10.545-7.669 23.94-16.414 36.853-19.192 18.07-3.889 29.824 11.427 46.522 14.631 6.85 1.315 15.471 1.758 21.82 4.598 5.311 2.376 11.914-0.424 16.93-2.117 8.794-2.967 14.301-9.957 21.674-14.96 5.64-3.827 10.816-7.779 16.931-10.837 8.073-4.036 17.2-4.156 25.943-2.663 13.021 2.223 26.113 4.303 39.079 6.896 19.983 3.997 40.694 10.651 61.373 8.246 19.518-2.269 40.241-6.846 56.556-18.098 7.241-4.994 12.612-10.957 17.661-18.025 4.592-6.43 6.289-13.609 8.903-20.835 3.494-9.661 2.942-20.635 4.743-30.723 0.816-4.567 2.79-8.903 3.795-13.427 1.308-5.887 2.466-11.669 3.576-17.588 1.757-9.37 2.959-19.271 2.189-28.898-1.134-14.174-4.422-28.353-6.13-42.509-0.799-6.62-1.478-13.476-2.627-20.032-1.191-6.796-1.805-14.003-3.539-20.652-3.616-13.86-5.176-28.087-10.692-41.451-6.274-15.202-14.43-29.332-25.468-41.596-7.974-8.859-17.333-16.822-26.564-24.374-4.751-3.888-9.55-7.643-14.668-11.02-4.877-3.217-8.99-7.971-14.741-9.705-8.465-2.553-15.962 1.707-23.644 4.451-5.287 1.888-1.475 13.233 0.146 16.347 4.981 9.573 10.196 17.27 17.368 25.323 4.87 5.467 10.631 9.871 15.836 14.96 4.898 4.789 8.349 9.829 12.552 15.106 7.793 9.782 16.106 19.953 21.528 31.307 6.519 13.653 10.065 27.195 13.281 41.961 4.491 20.617 9.039 41.442 7.079 62.723-1.653 17.948-5.028 37.294-13.245 53.528-3.349 6.616-8.612 14.534-14.121 19.667-6.168 5.748-15.374 9.169-22.878 12.808-23.552 11.419-53.78 17.422-76.443 1.532-9.842-6.901-16.259-18.217-21.674-28.753-2.818-5.484-3.148-11.648 1.533-16.419 14.142-14.414 36.878-5.619 54.221-5.619 9.564 0 20.514-9.266 25.907-16.457 8.851-11.801 11.418-30.626 11.858-44.953 0.512-16.611 2.719-34.641-2.919-50.572-3.629-10.258-8.731-19.096-13.975-28.534-4.403-7.926-6.41-16.932-11.493-24.557-4.948-7.421-9.985-16.192-16.894-22.039-2.852-2.412-6.304-2.443-9.816-3.028-3.845-0.641-6.707 3.161-8.246 6.385-3.375 7.072-4.269 12.899-4.269 20.616 0 17.521 3.667 36.021 8.538 52.798 2.035 7.008 3.941 14.343 3.941 21.674 0 6.834 1.127 13.941-1.46 20.507-4.506 11.439-13.995 16.571-24.739 21.163-6.731 2.877-13.472 6.146-20.36 8.611-1.704 0.61-6.067 1.882-7.954 0.803-4.88-2.788-6.721-13.015-8.32-17.66-2.696-7.836-7.387-16.296-6.641-24.885 0.605-6.951 2.041-14.017 5.766-19.996 2.867-4.603 6.076-9.377 8.027-14.449 4.528-11.772 2.445-22.227-1.314-34.08-2.322-7.325-4.914-17.139-2.773-24.739 1.429-5.07 6.407-10.133 9.633-14.23 3.36-4.267 7.128-8.342 11.749-11.239 0.599-0.375 2.775-2.245 3.284-0.948 1.977 5.032 2.182 11.536 2.773 16.857 1.89 17.005 0.397 34.762 0.11 51.85-0.133 7.918-0.783 15.831-0.475 23.754 0.251 6.433 1.395 12.801 1.788 19.229 0.598 9.769 1.279 19.732 5.948 28.57 3.531 6.683 10.108 10.944 15.836 15.617 12.506 10.203 21.763 23.219 33.824 33.788 7.862 6.889 15.422 14.202 22.477 21.929 5.251 5.751 8.315 14.326 10.144 21.784 1.819 7.419-6.77 3.79-11.275 2.371-10.693-3.367-21.16-7.059-32.11-9.596-11.512-2.667-23.261-4.21-34.736-7.042-20.999-5.183-43.045-15.146-59.44-29.629-6.591-5.822-11.935-12.522-17.952-18.864-5.247-5.53-10.713-10.568-15.544-16.529-25.841-31.889-63.065-46.464-99.722-62.65-15.841-6.995-31.732-14.026-47.726-20.652-8.291-3.435-17.004-7.235-24.812-11.677-6.998-3.98-12.849-8.589-19.266-13.354-12.746-9.465-23.487-20.661-34.518-32.037-5.327-5.493-10.493-11.717-14.23-18.39-4.83-8.626-8.026-17.262-11.822-26.344-3.137-7.507-4.998-15.172-7.261-22.951-1.687-5.799-3.184-10.949-2.518-17.113 0.388-3.587 2.083-6.479 5.911-6.24 3.002 0.188 5.449 1.689 8.173 2.81 3.419 1.406 6.845 2.361 9.998 4.378 14.605 9.347 24.084 24.487 33.679 38.422 11.763 17.085 24.35 33.487 38.568 48.639 16.007 17.059 35.578 30.803 54.878 43.859 9.536 6.451 20.2 10.67 30.358 15.982 10.602 5.543 21.156 11.218 31.818 16.638 16.012 8.141 32.382 17.379 50.645 18.901 9.461 0.788 12.197-3.767 12.406-13.063 0.269-11.964 0.022-22.321-6.568-32.766-6.381-10.116-17.454-16.191-28.606-19.704-14.359-4.521-28.171-10.537-42.546-14.96-28.411-8.742-55.499-20.344-80.711-36.342-11.918-7.562-24.511-15.827-34.956-25.323-6.824-6.204-14.682-13.288-19.266-21.382-2.744-4.846-1.351-11.851 0-16.93 2.429-9.129 11.513-12.978 20.215-13.683 9.893-0.802 17.971 3.213 26.417 7.881 8.721 4.82 15.889 10.354 22.258 18.025 15.431 18.588 33.518 34.08 54.404 46.194 20.544 11.916 40.071 25.53 60.825 37.109 9.405 5.246 37.112 17.018 41.889-0.803 2.219-8.278-4.843-17.874-8.466-24.666-5.037-9.445-11.392-15.632-20.068-21.82-9.811-6.997-20.257-12.427-31.015-17.806-13.792-6.896-27.514-13.799-41.669-19.923-11.985-5.184-22.666-13-33.642-19.995-8.583-5.47-17.978-11.402-24.739-19.12-4.005-4.571-8.558-10.394-5.984-16.785 3.484-8.65 18.081-8.131 25.249-6.275 15.074 3.901 27.841 17.183 39.627 26.745 12.911 10.476 26.11 20.653 39.48 30.541 13.117 9.702 27.524 17.821 41.341 26.49 10.041 6.301 20.823 11.715 31.197 17.478 7.243 4.024 15.387 10.471 23.498 12.37 6.075 1.421 10.733-1.899 14.486-6.568 10.047-12.498 4.094-27.629-4.196-38.933-6.398-8.724-15.655-14.836-24.629-20.689-10.053-6.556-19.788-13.494-29.957-19.849-13.198-8.249-26.665-16.739-39.298-25.834-12.97-9.339-27.21-16.259-41.377-23.571-17.458-9.011-36.784-13.766-55.098-20.726-6.164-2.342-8.827-6.387-12.478-11.712-2.164-3.155-5.879-7.516-6.021-11.348-0.121-3.279-1.104-7.212 0.949-10.144 2.367-3.382 7.506-4.204 11.311-3.795 3.162 0.34 5.919 1.605 8.94 2.482 5.468 1.587 11.065 2.835 16.602 4.159 9.018 2.157 16.13 6.012 24.52 9.779 16.932 7.602 33.55 15.922 50.572 23.279 23.822 10.296 44.529 24.923 66.263 38.933 7.587 4.891 13.493 9.873 18.536 17.077 4.065 5.807 7.711 12.879 12.844 17.806 2.801 2.689 5.758 6.304 7.881 9.56 2.215 3.396 5.86 6.052 8.538 9.158 2.837 3.291 6.091 6.091 9.159 9.159 1.718 1.718 2.509 2.955 4.926 2.955" stroke="#fff" stroke-linecap="round" stroke-width="64"/>
 <path d="m337.25 675.99c5.623 1.823 10.776 4.587 16.81 4.587 1.416 0 2.788 0.191 4.206 0.191 1.523 0 3.241-0.219 4.747 0.043 1.577 0.274 3.224 0.553 4.81 0.711 0.663 0.067 1.379 0.202 2.029 0.202 0.709 0 1.286 0.368 1.996 0.382 1.159 0.024 2.21 0.383 3.356 0.383 1.627 0 3.293 0.212 4.863 0.616 1.579 0.406 3.415 0.148 5.055 0.148 0.577 0 1.695 0.196 0.446-0.117-2.992-0.748-6.14-1.281-8.899-2.707-1.559-0.807 10.415-5.169 8.835-5.931 21.656 2.379-17.141-1-18-1-14.911 0-28.531 0.382-43.046 2.992-9.548 1.716 12.195 1.542 4.046 5.616" stroke="#FF8D00" stroke-linecap="round" stroke-width="36"/>
 <path d="m311.23 687.8c6.765 0.752 15.23 8.822 22.05 11.229 10.616 3.747 22.033 1.911 33.022 1.911 13.137 0 23.387 5.41 36.134 5.41" stroke="#FF8D00" stroke-linecap="round" stroke-width="36"/>
 <path d="m537.5 670c2.365-1.051 15.474 3.553 17.5 5 10.999 7.856 17 6.5 33.906 13.225 7.594 2.775 11.094 2.275 17.659 1.375 5.935-2.139 6.919-1.222 10.782-1.222 2.71 0 5.246-0.917 7.929-0.917" stroke="#FF8D00" stroke-linecap="round" stroke-width="36"/>
 <path d="m321.48 707.33c2.267 0.923 4.375 3.238 6.113 4.907 2.998 2.878 5.682 5.972 8.388 9.118 3.353 3.899 5.023 7.647 6.52 12.497 1.358 4.401 1.367 9.431 1.579 13.991 0.307 6.605-0.548 13.103-1.579 19.595-3.435 21.627-9.951 42.61-20.477 61.907-2.221 4.071-5.046 7.831-7.573 11.716-2.947 4.529-5.949 9.031-9.322 13.261-3.313 4.155-6.856 7.924-10.51 11.767-3.011 3.166-6.591 5.482-9.95 8.252-4.283 3.531-8.927 6.711-13.075 10.392-3.389 3.008-6.411 6.335-7.403 10.866-0.871 3.984 1.449 4.446 4.653 5.807 4.535 1.928 9.243 2.404 14.127 2.819 9.955 0.845 19.872 2.051 29.816 3.056 2.322 0.235 4.692 0.065 6.995 0.408 2.706 0.403 5.419 0.849 8.134 1.188 3.851 0.482 7.794 0.602 11.665 0.917 6.326 0.515 12.688 1.007 19.034 1.104 6.569 0.1 13.147 0.695 19.713 0.968 5.703 0.237 11.414 0.36 17.115 0.611 9.692 0.428 19.369 1.415 29.069 1.749 6.643 0.229 13.266 1.171 19.901 1.613 3.83 0.256 10.613 1.391 12.225-3.328 1.178-3.45 1.487-7.335 2.054-10.918 0.689-4.347 1.254-8.634 0.612-13.023-1.064-7.271-2.745-14.028-4.636-21.089-1.68-6.274-3.77-12.513-6.028-18.609-1.218-3.289-2.2-6.579-3.531-9.832-1.402-3.427-3.469-6.442-5.026-9.78-3.508-7.516-6.235-15.34-9.73-22.837-1.517-3.256-3.071-6.42-4.822-9.56-1.761-3.158-3.952-6.014-5.603-9.254-3.44-6.748-8.595-12.464-11.648-19.458-3.571-8.182-5.904-16.557-6.792-25.436-0.379-3.795-0.585-8.855-2.377-12.31-1.337-2.578-3.643-3.383-6.418-4.126-4.595-1.23-9.793-1.528-14.535-1.528-4.654 0-9.258-0.306-13.906-0.306-4.965 0-9.648 0.591-14.348 2.276-2.43 0.871-0.105 2.833 1.053 3.803 2.571 2.152 5.39 3.209 8.575 4.16 8.356 2.496 16.396 5.735 24.671 8.473 3.051 1.009 6.203 1.839 9.203 2.988 0.777 0.298 2.121 0.648 2.751 1.223 0.507 0.463-2.399 1.644-2.53 1.698-5.416 2.212-11.079 3.496-16.759 4.788-7.233 1.645-14.472 3.492-21.564 5.671-3.184 0.978-7.023 2.062-9.339 4.636-1.447 1.607 0.857 3.448 2.224 4.278 1.682 1.021 3.645 1.413 5.536 1.851 2.822 0.654 5.612 1.437 8.438 2.072 4.513 1.013 9.22 1.466 13.652 2.818 2.124 0.648 4.977 1.678 6.792 2.989 0.721 0.521 0.977 1.079 0.917 1.969-0.108 1.586-2.345 3.668-3.413 4.67-2.925 2.742-6.363 5.232-9.695 7.454-2.127 1.417-4.155 2.949-6.147 4.55-1.025 0.824-2.438 1.584-2.819 2.955-1.357 4.887 9.958 5.293 12.463 5.348 4.678 0.103 9.495-0.077 14.161-0.441 2.646-0.207 5.055-0.59 7.675 0 2.738 0.616 6.416 1.599 5.739 5.043-1.282 6.526-11.321 8.937-16.589 10.51-8.484 2.534-17.787 1.323-26.233 3.99-1.289 0.407-4.576 2.058-5.026 3.532-0.499 1.631 1.349 2.757 2.513 3.43 10.852 6.272 23.528 4.365 35.419 3.481 5.011-0.373 9.811-0.857 14.738-1.885 3.729-0.778 7.902-1.37 11.716-0.985 6.178 0.624 3.096 7.103 0.476 10.001-2.919 3.229-7.067 4.882-11.207 5.96-6.805 1.772-14.056 2.072-21.021 2.904-7.875 0.94-15.749 1.912-23.635 2.767-7.149 0.775-14.506 1.13-21.53 2.751-1.274 0.294-5.013 0.689-5.688 2.19-0.957 2.127 0.286 5.228 2.037 6.52 3.465 2.558 8.159 3.929 12.344 4.602 7.786 1.251 16.117 0.997 23.942 0.373 9.208-0.734 18.385-1.791 27.608-2.377 6.964-0.442 14.043-1.056 20.987 0 2.42 0.368 9.572 2.674 7.149 6.588-1.845 2.979-7.612 4.536-10.681 5.604-9.837 3.423-20.153 5.673-30.563 6.316-18.986 1.173-38.233 0.309-57.187-1.104-7.069-0.527-14.084-0.9-21.174-0.9-3.889 0-7.879 0.101-11.393 1.97-2.449 1.303-2.582 3.964-1.256 6.35 1.269 2.286 3.823 3.585 6.197 4.398 6.072 2.081 12.708 2.936 19.102 3.107 13.577 0.365 27.453-1.817 40.904-3.463 11.274-1.38 22.479-3.205 33.755-4.551 14.685-1.752 29.205-2.391 43.994-2.309 4.103 0.023 8.483 1.003 12.328 2.445" stroke="#FF8D00" stroke-linecap="round" stroke-width="36"/>
 <path d="m554.37 706.72c3.044 1.69 3.378 6.431 3.804 9.474 0.32 2.289 0.17 4.657 0.17 6.962 0 3.618 0.329 7.212 0.305 10.833-0.072 11.042-2.117 21.895-3.684 32.787-2.037 14.155-4.927 27.959-8.694 41.736-1.668 6.099-3.214 12.368-5.348 18.321-1.852 5.162-4.302 10.027-6.487 15.044-4.689 10.769-9.38 21.36-12.768 32.635-2.341 7.788-4.398 15.772-6.283 23.686-1.344 5.647-4.229 10.796-3.786 16.776 0.122 1.648 1.397 1.701 2.801 1.715 3.785 0.039 7.935 0.438 11.648-0.373 7.573-1.655 10.496-7.125 13.041-13.839 1.807-4.768 3.543-9.506 4.822-14.449 1.342-5.192 1.678-10.446 2.445-15.724 1.456-10.016 3.362-19.97 5.399-29.884 0.929-4.519 2.276-8.884 3.091-13.447 0.865-4.848 1.923-9.609 3.175-14.365 1.624-6.17 3.487-12.381 4.109-18.746 0.676-6.921 2.188-13.663 2.904-20.562 0.616-5.947 0.463-11.954 0.95-17.913 0.456-5.573 0.354-11.402 1.291-16.912 1.188-6.986 1.782-14.318 4.686-20.851 1.055-2.373 2.533-4.361 4.856-2.037 3.862 3.861 4.651 9.694 5.23 14.874 0.477 4.261 0.314 8.934-0.051 13.193-0.499 5.822-1.218 11.67-1.817 17.489-0.433 4.217-1.31 8.348-2.071 12.514-0.666 3.647-0.941 7.32-1.46 10.985-0.862 6.08-1.793 12.164-2.717 18.237-1.567 10.296-1.912 20.864-2.377 31.259-0.422 9.408-0.461 18.813-2.581 28.05-1.603 6.985-4.574 13.518-6.351 20.427-2.048 7.964-3.734 16.231-4.72 24.399-0.383 3.172-1.793 8.388-0.238 11.343 1.516 2.88 7.041 1.307 9.169 0.373 5.408-2.373 10.149-5.703 13.669-10.459 4.788-6.471 7.103-14.089 7.777-22.057 0.764-9.04 2.091-17.926 3.752-26.844 0.962-5.166 1.505-10.401 2.377-15.588 0.907-5.389 1.835-10.776 2.208-16.232 0.255-3.743 0.773-7.396 0.866-11.156 0.135-5.485-0.559-10.694-1.087-16.147-0.937-9.681-0.969-19.499-0.459-29.205 0.63-11.957 0.612-23.879 0.612-35.861 0-5.765 2.642-11.124 2.75-16.878 0.018-0.929 0.306-1.79 0.306-2.733 0-1.382 0.873 0.387 1.07 0.933 1.499 4.166 2.45 8.696 3.209 13.041 1.272 7.283 2.438 14.599 3.209 21.954 0.545 5.198 1.486 10.326 2.156 15.503 0.652 5.031 0.838 10.153 1.121 15.213 0.389 6.956 1.165 13.695 0.611 20.682-0.268 3.388-0.068 6.859-0.068 10.255 0 6.004-0.477 11.983-0.594 17.982-0.205 10.561-0.628 21.138-0.628 31.7 0 6.324-0.264 12.696-0.764 19.001-0.633 7.975-0.459 15.963-0.459 23.958 0 5.48-0.158 12.176 1.97 17.319 1.321 3.192 4.251 4.449 7.573 4.415 10.608-0.109 14.652-12.166 15.808-20.834 0.996-7.473-0.505-14.149-1.783-21.462-1.042-5.964-2.161-11.737-3.702-17.608-1.188-4.531-2.195-9.164-2.75-13.822-0.188-1.575-0.306-3.151-0.306-4.737 0-0.63-0.086-0.623 0.34-0.119 7.944 9.404 14.084 19.829 20.749 30.139 4.915 7.603 9.642 15.772 16.096 22.226 2.65 2.65 5.719 4.649 8.898 6.588 3.592 2.192 7.409 2.496 11.512 2.751 7.886 0.489 15.278 2.353 22.939 4.177 3.484 0.829 10.334 2.662 4.856 6.435-2.921 2.013-6.232 2.756-9.593 3.753-3.989 1.182-8.22 1.635-12.361 1.833-4.548 0.219-9.277-0.296-13.788-0.849-4.137-0.506-8.231-0.896-11.987-2.886-9.039-4.789-11.972-16.071-13.533-25.283-1.197-7.064-2.534-14.127-3.82-21.173-1.169-6.399-2.509-12.866-4.823-18.966-2.396-6.32-5.484-12.38-9.101-18.084-2.129-3.358-4.768-6.201-7.063-9.406-5.744-8.024-9.406-17.258-13.652-26.149-4.441-9.3-9.56-18.397-13.448-27.948-3.612-8.873-5.782-18.451-7.046-27.932-0.893-6.696-1.068-13.694 1.545-20.053 1.783-4.338 4.349-9.01 7.301-12.7" stroke="#FF8D00" stroke-linecap="round" stroke-width="36"/>
 <path d="m346.74 65.039c0.257 6.4339 2.341 12.84 2.554 19.254 0.194 5.8182 1.203 11.556 1.609 17.361 1.711 24.469 6.508 48.67 8.278 73.136 0.631 8.713 3.659 16.604 6.387 24.788 2.145 6.435 6.261 11.993 11.306 16.415 4.803 4.21 10.868 6.464 16.794 8.61 4.099 1.484 8.487 1.796 12.725 2.673 4.079 0.844 8.793 1.397 12.938 0.568 6.604-1.321 12.286-8.069 17.22-12.276 4.616-3.938 8.177-9.513 9.981-15.328 0.704-2.269 0.712-4.811 1.112-7.143 0.64-3.728 1.277-7.397 1.277-11.188 0-7.641-0.132-15.234-1.49-22.778-1.345-7.471-5.846-14.343-9.13-21.075-2.192-4.493-5.256-7.489-8.35-11.329-10.328-12.822-24.075-22.175-36.473-32.736-5.042-4.2955-11.06-7.4913-16.415-11.401-5.046-3.6848-9.797-7.5635-15.422-10.407-2.408-1.2179-4.758-2.3666-6.977-3.9028-1.121-0.776 0.804 8.9219 1.017 9.7214 2.828 10.606 7.15 19.712 14.144 28.242 3.065 3.738 6.878 6.71 9.651 10.715 2.146 3.1 4.448 5.907 6.765 8.87 3.222 4.12 7.059 7.485 10.738 11.164 4.703 4.703 9.631 8.959 13.955 14.05 4.705 5.54 7.307 12.353 9.485 19.159 1.593 4.979 2.531 9.228 2.531 14.452 0 4.742-2.792 8.55-5.558 12.181-2.079 2.729-6.406 4.623-9.793 4.849-3.951 0.264-6.545-0.578-9.981-2.105-1.766-0.785-2.724-3.354-3.525-4.92-1.16-2.267-2.527-4.361-3.287-6.812-1.489-4.797-3.699-9.318-5.322-14.073-1.585-4.642-2.183-9.616-4.045-14.169-1.192-2.914-3.193-6.606-3.193-9.839" stroke="#FF8D00" stroke-linecap="round" stroke-width="36"/>
 <path d="m750.39 258.39c15.415 0 70 8.5 86.5 21.944 30 23.056 40.977 44.033 61 64.056 15.696 15.696 36.673 44.441 39.555 66.055 2.706 20.298 3.376 41.542 3.945 62 0.584 21.041 3 42.051 3 63.445 0 22.17-2.835 40.449-8.223 62-6.386 25.546-12.558 56.436-28.777 77.778-7.523 9.898-18.26 14.309-30 18.222-24.085 8.028-47.309 22.901-72.112 10.5-20.707-10.354-37.367-18.897-53.888-34.5-25.102-23.707-29.116-50.338-50.5-76-7.438-8.925-16.147-17.431-26-24-42.59-28.393-90.686-45.903-133.72-73-8.974-5.65-19.339-8.903-28.222-14.556-7.686-4.891-15.691-9.468-22.111-15.889-2.703-2.702-5.346-4.783-8.445-7.555-17.497-15.656-40.19-31.542-59.166-46.611-22.28-17.693-29.346-23.809-43.389-49.889-7.867-14.611-14.974-30.534-20.222-46.278-5.967-17.899-6.15-36.645-10.167-54.722-0.685-3.081 4e-3 -7.193-1.556-10m0 0c-2.153-3.876 2.641-4.5 5.5-4.5 3.64 0 4.624 4.107 7.556 4.944 9.853 2.816 19.416 6.056 29.889 6.056 10.012 0 19.645-3 29.5-3 6.286 0 11.715-1.728 17.833-2 36.077-1.604 44.222-27.05 44.222-60 0-11.401-0.463-22.736-1-34-0.725-15.232-11.241-30.896-22.222-40.778-8.783-7.905-30.387-18.458-41.278-23.666-20.803-9.9494-37.071-32.68-59.889-47.444-8.5-5.5-23.5-15-32-17.5-7.5 16-3.611 45.5-3.611 62.444 0 11.153 2 21.888 2 32.945 0 11.582 3.483 21.558 5.778 32.778 1.335 6.523 3.211 12.429 4.722 18.777m13 74.945c-0.156-5.311-11.768-69.771-13-74.945m0 0 5.001 27.445c-35.75 13.75-102.56 47.055-129.28 73.778-19.965 19.964-46.176 30.771-63.722 54.166-14.137 18.849-27.449 33.843-38.056 55.056-23.877 47.754-49.608 108.97-55.5 162-2.4444 22-0.9444 70.971-0.9444 92.444 0 19.147-12 44.556-16 52.056-0.9084 0.534-12.487 22.516-12.389 22.556 2.9427 1.177 4.8216 3.139 7.8334 4 24.247 6.927 36.475 14.944 66.056 14.944 19.838 0 43.95 6.801 63.944 10 22.651 3.624 45.406 6.571 68.056 10.056 115.23 17.727 77.436-0.969 83.499-104.06 0.037-0.621 0 4.755 0 6.222 0 6.585-0.092 13.026 0.778 19.556 2.06 15.444 2.222 31.397 2.222 47 0 21.412 0.268 58.527-7.5 78.722-5.758 14.972-10.266 28.047-23.055 38.278-14.649 11.719-28.182 25.081-43.222 36.222-8.462 6.268-18.242 11.279-26.222 18-4.26 3.587-8.035 6.736-12.056 10.556-2.895 2.75-6.963 5.825-9.389 8.944-1.079 1.388-5.702 3.5-3.944 3.5 33.505 0 65.773 12 100.17 12 9.375 0 17.658 3 27.222 3h38.056c10.252 0 20.034 2 30.389 2 10.741 0 21.84 5.609 32.778 6 13.018 0.465 25.412 5 39 5 4.99 0 9.407-1.069 14.222-1.944 3.775-0.687 4.555-3.607 4.555-7.556 0-21.414-0.866-42.977 1.945-64.056 2.344-17.579-10.944-32.944-19.444-47.444-8.5-16.5-23.154-35.042-29.723-52.778-8.402-22.685-10.803-50.93-23.278-71.722-4.527-7.546-9.676-15.028-12.5-23.5" stroke="#000" stroke-linecap="round" stroke-width="48"/>
 <path d="m538.39 672.89c0 13.3-3 26.015-3 39.5 0 14.848 1 30.628 1 46 0 17.593-6.92 32.372-12.222 48.278-2.843 8.529-6.955 16.541-10 25-4.067 11.295-11.17 21.902-17.223 32.278-3.477 5.961-6.78 23.327-13.111 26.944-4.185 2.391-6.444 19.949-6.444 24.444 0 9.535 2.601 27.556 14.222 27.556 5.798 0 11.12 1.702 16.778 2 4.777 0.251 9.343 1 14.222 1 8.143 0 15.797 1.778 23.778 2 24.249 0.674 48.613 0.549 72.778 0 31.039-0.705 63.329-3.623 94.222-7.056 8.079-0.897 94.713-11.184 62.222-24.722-4.134-1.722-8.114-4.001-12.444-5.444-12.806-4.269-25.735-9.534-37.778-15.556-23.719-11.859-42.017-23.735-62.5-39.666-30.553-23.764-24.744-57.056-37.5-86.556-4.003-9.256-3-23.563-3-33.556 0-9.2 2-18.091 2-27.444 0-7.949 0.398-17.204-3-24" stroke="#000" stroke-linecap="round" stroke-width="48"/>
 <path d="m629.39 760.89c4.494 0 8.754 2.75 13 3 6.607 0.389 12.719-0.205 19-2 14.628-4.179 31.306-11.291 45-17.778 8.262-3.913 17.4-7.473 25.222-12.222 7.617-4.624 14.94-7.162 21.278-13.5 4.775-4.775 10.501-10.058 14-15.5 2.59-4.029 7.5-9.619 7.5-15" stroke="#000" stroke-linecap="round" stroke-width="48"/>
 <path d="m754.17 277.11c1.82 2.427 2.898 8.795 3.278 11.833 0.768 6.147 5.308 13.129 7.166 19.167 7.245 23.547-7.222 52.346-7.222 76.333 0 9.81-1 19.828-1 29.445 0 13.928 0.996 23.733 4.056 37.5 1.17 5.266 7.087 13.523 9.722 18.5 2.805 5.298 10.019 9.484 15.222 12.222 27.469 14.457 36.24 9.778 67 9.778" stroke="#000" stroke-linecap="round" stroke-width="48"/>
 <path d="m644.39 247.89c-5.981 0-1.57 6.375 1.444 2.5 3.219-4.138-1.735-4.5-4.444-4.5" stroke="#000" stroke-linecap="round" stroke-width="48"/>
 <path d="m762.39 298.89c-3.726-0.828-4.811-8.818-6.778-11.222-23.772-29.056-35.65-62.701-64-90-16.928-16.302-38.255-28.82-58.278-40.834-20.126-12.076-39.296-22.401-61.277-30.5-25.241-9.299-61.062-9.974-87.223-2.5-4.35 1.243-9.18 1.35-13.444 3.056" stroke="#000" stroke-linecap="round" stroke-width="48"/>
 <path d="m363.88 909.78c0.086-0.041 0.2-0.03 0.293-0.048 0.077-0.015 0.153-0.03 0.231-0.039 0.185-0.02 0.391 0.01 0.575 0.027 0.221 0.021 0.447 0.044 0.666 0.078 0.243 0.038 0.487 0.108 0.733 0.118 0.173 7e-3 0.345 0.05 0.517 0.066 0.253 0.024 0.505 0.039 0.758 0.068 0.301 0.034 0.606 0.048 0.908 0.071 0.267 0.021 0.53 0.077 0.798 0.094 0.385 0.023 0.774 0.101 1.159 0.105 0.298 3e-3 0.588 0.081 0.883 0.09 0.32 0.011 0.641 0.062 0.957 0.111 0.509 0.079 1.028 0.076 1.536 0.151 0.234 0.034 0.472 0.022 0.706 0.056 0.231 0.034 0.481 0.046 0.715 0.056 0.314 0.013 0.628 0.052 0.943 0.06 0.113 4e-3 0.226 0.029 0.339 0.03 0.151 2e-3 0.304 6e-3 0.454 0.023 0.143 0.017 0.291 7e-3 0.435 7e-3 0.143 0 0.285 0.015 0.428 0.015h0.723c1.081 0 2.154 0.12 3.235 0.12 1.001 0 2 0.045 2.999 0.045 0.389 0 0.776 0.03 1.162 0.03 0.208 0 0.414 8e-3 0.622 0.015 0.086 3e-3 0.178 0.014 0.263 0.027 0.079 0.012 0.16-5e-3 0.238 0.011 0.079 0.016 0.16 0.037 0.241 0.037 0.099 0 0.19 0.043 0.289 0.045 0.161 4e-3 0.323 0.058 0.483 0.076 0.109 0.012 0.246 0.028 0.348 0.063 0.092 0.03 0.23 0.086 0.327 0.086" stroke="#000" stroke-linecap="round"/>
 <path d="m380.47 911.37c-0.39-0.062-0.788-0.045-1.182-0.045-0.533 0-1.065 5e-3 -1.596-0.03-0.472-0.03-0.944-0.057-1.416-0.071-0.151-5e-3 -0.301-9e-3 -0.452-0.015-0.01-1e-3 -0.199-0.023-0.119 0.022 0.267 0.15 0.602 0.229 0.899 0.287 0.357 0.07 0.738 0.129 1.103 0.137 0.07 2e-3 -5e-3 -4e-3 -0.025-7e-3 -0.15-0.02-0.299-0.048-0.45-0.064-0.816-0.089-1.646-0.089-2.466-0.093-1.154-6e-3 -2.312-0.029-3.463-0.124-0.282-0.023-0.566-0.09-0.843-0.138-0.682-0.119-1.363-0.26-2.04-0.406-0.821-0.177-1.652-0.383-2.445-0.661-0.194-0.068-0.38-0.152-0.573-0.222-0.105-0.038-0.199-0.09-0.301-0.136-0.122-0.054-0.257-0.069-0.38-0.121-0.209-0.09-0.433-0.185-0.657-0.232-0.457-0.095-0.919-0.161-1.388-0.165-0.957-8e-3 -1.911 0.036-2.867 0.06-0.075 2e-3 -0.151-2e-3 -0.221 0.027-0.091 0.037 0.195 0.033 0.293 0.033 0.268 1e-3 0.536-3e-3 0.805 8e-3 0.626 0.024 1.253 8e-3 1.879 0.034 0.425 0.017 0.85 0.048 1.276 0.048 0.785 0 1.565 0.046 2.347 0.113 0.576 0.049 1.152 0.103 1.728 0.16 0.744 0.075 1.486 0.18 2.232 0.229 0.887 0.059 1.778 0.088 2.662 0.181 0.991 0.104 1.982 0.204 2.972 0.318 1.695 0.196 3.399 0.321 5.102 0.415 1.263 0.07 2.521 0.177 3.781 0.278 0.447 0.036 0.892 0.091 1.339 0.127 0.448 0.036 0.898 0.098 1.348 0.098" stroke="#000" stroke-linecap="round"/>
 <path d="m458.65 878.75v8.727h-1.057v-7.619h-0.051l-2.131 1.415v-1.074l2.182-1.449h1.057z" fill="#000"/>
</svg>
